<svg width="55" height="55" viewBox="0 0 55 55" fill="none" xmlns="http://www.w3.org/2000/svg">
<g clip-path="url(#clip0)">
<path d="M28.4523 26.6994H29.6425H49.9367C50.4271 26.6994 50.8591 26.3772 50.9992 25.9072L55.3716 11.226C55.4715 10.8906 55.407 10.5276 55.1978 10.247C54.9886 9.96638 54.6592 9.80107 54.3092 9.80107H26.0966L24.6049 4.79206C24.4649 4.32214 24.0328 4 23.5424 4H19.1086C18.4964 3.99993 18 4.49622 18 5.1085C18 5.72071 18.4964 6.21707 19.1086 6.21707H22.716L24.2006 11.202C24.2051 11.2185 24.2099 11.2348 24.2151 11.2509L28.1591 24.4934C25.9079 24.6448 24.1223 26.5234 24.1223 28.8124C24.1223 31.1999 26.0647 33.1424 28.4522 33.1424H29.5527C30.0337 34.7913 31.5579 36 33.3601 36C35.1622 36 36.6864 34.7914 37.1674 33.1424H43.0491C43.5301 34.7913 45.0543 36 46.8565 36C48.6586 36 50.1828 34.7914 50.6638 33.1424H52.092C52.7042 33.1424 53.2006 32.646 53.2006 32.0338C53.2006 31.4216 52.7042 30.9252 52.092 30.9252H50.6638C50.1828 29.2762 48.6587 28.0676 46.8565 28.0676C45.0543 28.0676 43.53 29.2762 43.0491 30.9252H37.1674C36.6864 29.2762 35.1623 28.0676 33.3601 28.0676C31.5579 28.0676 30.0336 29.2762 29.5527 30.9252H28.4522C27.2871 30.9252 26.3393 29.9774 26.3393 28.8123C26.3393 27.6472 27.2872 26.6994 28.4523 26.6994ZM44.7147 12.0181H52.8224L51.2965 17.1416H44.7147V12.0181ZM44.7146 19.3587H50.6361L49.1102 24.4823H44.7146V19.3587ZM36.5118 12.0181H42.4976V17.1416H36.5118V12.0181ZM36.5118 19.3587H42.4975V24.4823H36.5118V19.3587ZM34.2948 24.4823H30.4691L28.9432 19.3587H34.2948V24.4823ZM26.7571 12.0181H34.2948V17.1416H28.2829L26.7571 12.0181ZM46.8565 30.2847C47.821 30.2847 48.6056 31.0693 48.6056 32.0337C48.6056 32.9982 47.821 33.7828 46.8565 33.7828C45.8921 33.7828 45.1075 32.9982 45.1075 32.0337C45.1075 31.0693 45.8921 30.2847 46.8565 30.2847ZM33.3601 30.2847C34.3246 30.2847 35.1092 31.0693 35.1092 32.0337C35.1092 32.9982 34.3246 33.7828 33.3601 33.7828C32.3957 33.7828 31.6111 32.9982 31.6111 32.0337C31.6111 31.0693 32.3957 30.2847 33.3601 30.2847Z" fill="#89D1B5"/>
</g>
<defs>
<clipPath id="clip0">
<rect width="55" height="55" fill="white"/>
</clipPath>
</defs>
</svg>
